Coordinates
version=1
nRows=16
nColumns=40
inDegrees=yes

Units are S.I. units (second, meters, Newtons, ...)
If the header above contains a line with 'inDegrees', this indicates whether rotational values are in degrees (yes) or radians (no).

endheader
time	pelvis_tilt	pelvis_list	pelvis_rotation	pelvis_tx	pelvis_ty	pelvis_tz	hip_flexion_r	hip_adduction_r	hip_rotation_r	knee_angle_r	knee_angle_r_beta	ankle_angle_r	subtalar_angle_r	mtp_angle_r	hip_flexion_l	hip_adduction_l	hip_rotation_l	knee_angle_l	knee_angle_l_beta	ankle_angle_l	subtalar_angle_l	mtp_angle_l	lumbar_extension	lumbar_bending	lumbar_rotation	arm_flex_r	arm_add_r	arm_rot_r	elbow_flex_r	pro_sup_r	wrist_flex_r	wrist_dev_r	arm_flex_l	arm_add_l	arm_rot_l	elbow_flex_l	pro_sup_l	wrist_flex_l	wrist_dev_l
      4.83000000	    -34.93090194	     -0.77984891	     -1.84942654	     -0.34126725	      0.66651646	     -0.88908180	     88.27661174	    -16.76684753	     -5.16048711	     87.78970613	      1.53221942	     30.92943339	      0.00000000	      0.00000000	     89.48510839	    -24.70243035	     -3.26622805	     88.81063850	      1.55003805	     32.16337168	      0.00000000	      0.00000000	    -12.63193928	      2.06887314	     -3.84249130	    -20.29455667	    -41.11901035	     19.35382690	    111.64984052	     87.27214970	      0.00000000	      0.00000000	    -35.89604051	    -38.13676403	      9.86002406	    109.00975553	     87.93928480	      0.00000000	      0.00000000
      4.83500000	    -33.19112346	     -1.08440994	     -2.11535064	     -0.33482691	      0.67505735	     -0.88825866	     85.19267487	    -16.51498657	     -5.98120406	     86.93151625	      1.51724118	     30.96148844	      0.00000000	      0.00000000	     86.58894431	    -25.46554017	     -3.85462468	     88.09464189	      1.53754155	     32.09951120	      0.00000000	      0.00000000	    -13.56269582	      2.29420941	     -3.66267536	    -19.68111218	    -41.06476564	     19.91687796	    110.88674526	     87.24641697	      0.00000000	      0.00000000	    -35.77907755	    -37.89308353	      9.87038388	    108.63112122	     87.93606545	      0.00000000	      0.00000000
      4.84000000	    -32.74698242	     -0.84256186	     -2.23907208	     -0.33174290	      0.68137912	     -0.88807053	     84.05407608	    -16.38117174	     -5.94546173	     86.03623358	      1.50161555	     30.50468086	      0.00000000	      0.00000000	     85.03794337	    -25.51427292	     -4.54947942	     87.12005453	      1.52053180	     31.75100634	      0.00000000	      0.00000000	    -13.11289107	      2.00936796	     -3.76239215	    -19.34556518	    -41.08938703	     20.23327541	    110.53622990	     87.22649545	      0.00000000	      0.00000000	    -36.10427255	    -37.93977754	      9.73399146	    108.72357134	     87.94575948	      0.00000000	      0.00000000
      4.84500000	    -32.68518242	     -0.82771205	     -1.96044079	     -0.32907858	      0.68711598	     -0.88905409	     83.23334442	    -16.64505151	     -6.19079268	     85.10533857	      1.48536837	     30.08741871	      0.00000000	      0.00000000	     84.14969751	    -25.04784022	     -4.83509051	     86.15058492	      1.50361136	     31.26226859	      0.00000000	      0.00000000	    -12.20307493	      2.14484333	     -4.02871258	    -19.54167170	    -41.41274769	     20.23214283	    110.57668755	     87.22065625	      0.00000000	      0.00000000	    -36.40890676	    -37.90994927	      9.67435593	    108.96693887	     87.94848888	      0.00000000	      0.00000000
      4.85000000	    -32.69432233	     -0.83001170	     -2.12990564	     -0.32670620	      0.69283138	     -0.88852805	     82.52677858	    -16.37718252	     -6.44187988	     84.15153248	      1.46872131	     29.57984486	      0.00000000	      0.00000000	     83.31012849	    -25.07213487	     -4.99152551	     85.11298903	      1.48550189	     30.78749054	      0.00000000	      0.00000000	    -11.22398326	      2.15096260	     -3.93290698	    -19.70020520	    -41.68279087	     20.26690769	    110.73001193	     87.22704804	      0.00000000	      0.00000000	    -36.91156247	    -38.12573082	      9.48168966	    109.25812999	     87.95124017	      0.00000000	      0.00000000
      4.85500000	    -30.92668007	     -0.82180667	     -1.89316934	     -0.32053301	      0.70242468	     -0.88921756	     79.52829238	    -16.81252900	     -6.99874647	     83.21566551	      1.45238735	     28.89116036	      0.00000000	      0.00000000	     80.06024920	    -25.02342916	     -5.98833275	     83.93397333	      1.46492419	     30.65562673	      0.00000000	      0.00000000	    -12.12247384	      2.07432084	     -7.01256243	    -13.98689475	    -43.09404309	     26.31226139	    109.38231603	     87.17879931	      0.00000000	      0.00000000	    -40.90262754	    -35.04564541	      4.79957215	    109.93836051	     87.97700265	      0.00000000	      0.00000000
      4.86000000	    -29.78672259	     -0.80725989	     -2.74802331	     -0.31583038	      0.71124599	     -0.88695621	     77.36105044	    -15.78392313	     -7.19929288	     81.96384087	      1.43053889	     28.20360576	      0.00000000	      0.00000000	     77.54473193	    -26.18433232	     -7.02860672	     82.90113703	      1.44689779	     30.08711075	      0.00000000	      0.00000000	    -12.42842353	      1.80717987	     -6.23794001	    -13.89698751	    -43.17214446	     26.41087801	    109.58091304	     87.16621752	      0.00000000	      0.00000000	    -41.30681250	    -35.07397861	      4.37839805	    110.22044091	     87.98317087	      0.00000000	      0.00000000
      4.86500000	    -29.81336359	     -0.76685569	     -2.80730607	     -0.31312992	      0.71751317	     -0.88692074	     76.58802642	    -15.65330585	     -7.36136436	     80.85512273	      1.41118811	     27.69589385	      0.00000000	      0.00000000	     76.68439131	    -26.07765053	     -7.36220875	     81.85766872	      1.42868584	     29.47825863	      0.00000000	      0.00000000	    -11.35117964	      1.84011233	     -6.17527353	    -14.23056299	    -43.71015537	     26.37113444	    110.16478291	     87.18371674	      0.00000000	      0.00000000	    -41.96747305	    -35.15458330	      4.17560792	    110.65097465	     87.98789104	      0.00000000	      0.00000000
      4.87000000	    -28.63668424	     -0.80758385	     -2.97137380	     -0.30821611	      0.72668750	     -0.88661575	     74.32928573	    -15.45512553	     -7.67844231	     79.72343074	      1.39143636	     26.63441948	      0.00000000	      0.00000000	     74.15358998	    -26.34408896	     -8.24099148	     80.61016427	      1.40691278	     28.71755479	      0.00000000	      0.00000000	    -11.73328643	      1.84388582	     -6.12558971	    -14.36615816	    -43.99278691	     26.01746184	    111.02509513	     87.18753865	      0.00000000	      0.00000000	    -42.65706041	    -34.53985118	      3.08007400	    111.25745932	     87.97556216	      0.00000000	      0.00000000
      4.87500000	    -28.08207079	     -0.53260239	     -2.72347711	     -0.30448326	      0.73477894	     -0.88757429	     72.86367605	    -15.88337620	     -7.79562279	     78.52727309	      1.37055947	     25.77907208	      0.00000000	      0.00000000	     72.29168464	    -25.75960320	     -9.01751001	     79.17513707	      1.38186683	     28.14249151	      0.00000000	      0.00000000	    -11.38889921	      1.63519643	     -6.69396180	    -14.34173773	    -44.50888554	     26.02970146	    111.90405887	     87.21862583	      0.00000000	      0.00000000	    -43.87497179	    -33.93288427	      1.81553058	    112.11441130	     88.00702607	      0.00000000	      0.00000000
      4.88000000	    -27.10885765	     -0.66939555	     -3.01928917	     -0.30005834	      0.74416634	     -0.88677322	     70.68862124	    -15.40818144	     -8.12375054	     77.08596214	      1.34540385	     24.87004849	      0.00000000	      0.00000000	     70.07021671	    -26.10691588	     -9.62580881	     77.84659211	      1.35867934	     27.16864241	      0.00000000	      0.00000000	    -11.51530064	      1.69903212	     -6.57435078	    -14.26430392	    -45.06824936	     26.04768928	    112.86162767	     87.23320448	      0.00000000	      0.00000000	    -44.74645033	    -33.45444157	      0.87283831	    112.70377784	     88.00316415	      0.00000000	      0.00000000
      4.88500000	    -26.43179782	     -0.40469963	     -2.98756236	     -0.29606414	      0.75299087	     -0.88722485	     69.04168349	    -15.56899283	     -8.17960886	     75.73612130	      1.32184468	     23.93664296	      0.00000000	      0.00000000	     68.01176773	    -25.73875971	    -10.46670279	     76.38585899	      1.33318474	     26.30648905	      0.00000000	      0.00000000	    -11.20973397	      1.33831359	     -9.55204861	     -8.27720396	    -46.65566802	     32.22352511	    112.78467973	     87.19392837	      0.00000000	      0.00000000	    -48.95267261	    -29.88207066	     -3.55695575	    114.03451196	     88.05115340	      0.00000000	      0.00000000
      4.89000000	    -25.42017864	     -0.27639302	     -3.26266690	     -0.29100857	      0.76289510	     -0.88680177	     66.83005473	    -15.33955569	     -8.31727641	     74.20089244	      1.29504988	     22.98506063	      0.00000000	      0.00000000	     65.40408360	    -25.86937929	    -11.54488927	     74.80622890	      1.30561500	     25.43407185	      0.00000000	      0.00000000	    -11.32996569	      1.14022053	     -9.45371302	     -8.52099633	    -47.16923259	     31.82646609	    113.87060644	     87.16001825	      0.00000000	      0.00000000	    -49.91686003	    -29.33495396	     -4.45034177	    114.74340991	     88.05990881	      0.00000000	      0.00000000
      4.89500000	    -24.37256296	      0.56838674	     -3.20713653	     -0.28623986	      0.77335944	     -0.88832626	     64.85713186	    -15.98850262	     -7.85448564	     72.66478569	      1.26823976	     21.87491427	      0.00000000	      0.00000000	     62.42615015	    -24.92706936	    -13.14479104	     72.98690950	      1.27386188	     24.18392803	      0.00000000	      0.00000000	    -11.50601943	      0.33434183	     -9.82113054	     -8.64059680	    -47.75875775	     31.35088813	    115.01153273	     87.14849019	      0.00000000	      0.00000000	    -50.90723096	    -28.69407445	     -5.40221892	    115.57940384	     88.07819160	      0.00000000	      0.00000000
      4.90000000	    -24.13955642	      0.13280942	     -3.16873886	     -0.28321882	      0.78248062	     -0.88783645	     63.27721775	    -15.54060501	     -8.52425625	     70.85620961	      1.23667415	     20.61849842	      0.00000000	      0.00000000	     61.28146685	    -24.82872428	    -12.85950392	     71.32017307	      1.24477184	     22.85676849	      0.00000000	      0.00000000	    -10.91814223	      0.79997703	     -9.94130844	     -8.77317063	    -48.50093915	     30.95192278	    116.32968544	     87.16400596	      0.00000000	      0.00000000	    -52.12986738	    -28.08730009	     -6.44487624	    116.56387588	     88.08376699	      0.00000000	      0.00000000
      4.90500000	    -23.17229086	      0.72180369	     -3.48446223	     -0.27812631	      0.79319227	     -0.88776987	     61.22946231	    -15.61484244	     -8.24705917	     69.08227865	      1.20571322	     19.43550369	      0.00000000	      0.00000000	     58.39692113	    -24.44052655	    -14.31167900	     69.35153276	      1.21041259	     21.74334507	      0.00000000	      0.00000000	    -10.97274334	      0.08641458	    -10.04958830	     -8.81189530	    -49.07679998	     30.63900557	    117.44895826	     87.18381524	      0.00000000	      0.00000000	    -53.45569726	    -27.28724673	     -7.62751717	    117.50076290	     88.11289546	      0.00000000	      0.00000000
